<svg width="41" height="40" viewBox="0 0 41 40" fill="none" xmlns="http://www.w3.org/2000/svg">
<g clip-path="url(#clip0_16044_59557)">
<path d="M4.49104 10.2322V19.6081L0 21.5975V10.2308C0 9.6743 0.201633 9.16619 0.536344 8.77502C0.72588 8.55188 0.959774 8.36638 1.22324 8.23195C1.22593 8.23195 1.22727 8.23061 1.22862 8.22927L1.43563 8.13786C1.43563 8.13786 1.43697 8.13786 1.43832 8.13651C1.68834 8.03973 1.96122 7.9873 2.24485 7.9873C2.92906 7.9873 3.54202 8.29379 3.95336 8.77636C4.28807 9.16753 4.4897 9.67699 4.4897 10.2322H4.49104Z" fill="url(#paint0_linear_16044_59557)"/>
<path d="M22.5053 23.6741V37.7589C22.5053 38.6676 21.9649 39.4499 21.1893 39.8034C21.1719 39.8115 21.153 39.8196 21.1342 39.8276C20.8654 39.9419 20.5696 40.0037 20.2605 40.0037C19.9513 40.0037 19.6556 39.9405 19.3867 39.8276C19.3679 39.8196 19.3491 39.8115 19.3316 39.8034C18.5547 39.4499 18.0156 38.6676 18.0156 37.7589V22.0449L18.5896 22.2533L19.7846 22.6875L22.5067 23.6741H22.5053Z" fill="url(#paint1_linear_16044_59557)"/>
<path d="M13.4754 6.23838V15.6264L13.4674 15.6305L8.98438 17.6172V6.23838C8.98438 5.40093 9.44275 4.66968 10.1243 4.28388C10.1471 4.27044 10.1713 4.257 10.1955 4.2449L10.4442 4.13467C10.4442 4.13467 10.4482 4.13333 10.4496 4.13199C10.6929 4.04192 10.955 3.99219 11.2292 3.99219C11.6311 3.99219 12.0089 4.09838 12.3355 4.28388C13.0157 4.66968 13.4754 5.40093 13.4754 6.23838Z" fill="url(#paint2_linear_16044_59557)"/>
<path d="M22.4506 2.24473V18.8902L19.5552 17.8404L19.324 17.757L17.9609 17.2624V2.24473C17.9609 1.38174 18.4475 0.633008 19.1613 0.256626C19.1613 0.256626 19.164 0.255281 19.1654 0.255281L19.4396 0.132957C19.4396 0.132957 19.4396 0.132957 19.4409 0.132957C19.6802 0.0469271 19.9369 -0.00146484 20.2071 -0.00146484C20.4773 -0.00146484 20.7341 0.0455829 20.9733 0.132957H20.9747L21.2489 0.255281C21.2489 0.255281 21.2516 0.255281 21.2529 0.256626C21.9667 0.633008 22.4533 1.38174 22.4533 2.24473H22.4506Z" fill="url(#paint3_linear_16044_59557)"/>
<path d="M13.5002 20.5396V33.7667C13.5002 34.6041 13.0418 35.3354 12.3603 35.7212C12.0337 35.9067 11.6559 36.0129 11.254 36.0129C10.9784 36.0129 10.715 35.9631 10.4703 35.8717C10.4703 35.8717 10.4703 35.8717 10.4676 35.8717L10.219 35.7615C10.1948 35.7494 10.1719 35.736 10.1477 35.7225C9.46754 35.3367 9.00781 34.6055 9.00781 33.768V22.5303L9.64229 22.2494L13.4975 20.5409L13.5002 20.5396Z" fill="url(#paint4_linear_16044_59557)"/>
<path d="M31.4364 6.23838V17.4935L30.8436 17.757L26.9453 19.4843V6.23838C26.9453 5.40093 27.4037 4.66968 28.0852 4.28388C28.4119 4.09838 28.7896 3.99219 29.1915 3.99219C29.4671 3.99219 29.7332 4.04192 29.9779 4.13467L30.2266 4.2449C30.2508 4.257 30.2749 4.27044 30.2978 4.28388C30.978 4.66968 31.4377 5.40093 31.4377 6.23838H31.4364Z" fill="url(#paint5_linear_16044_59557)"/>
<path d="M40.5131 18.4252V29.7731C40.5131 29.9102 40.501 30.0433 40.4782 30.1723C40.4069 30.5716 40.2295 30.9332 39.9768 31.2289C39.7873 31.452 39.5534 31.6375 39.2899 31.7719C39.2872 31.7719 39.2859 31.7733 39.2845 31.7746L39.0775 31.866C39.0775 31.866 39.0762 31.866 39.0748 31.8674C38.8248 31.9642 38.5519 32.0166 38.2683 32.0166C37.5841 32.0166 36.9711 31.7101 36.5598 31.2275C36.2251 30.8364 36.0234 30.3269 36.0234 29.7717V20.4146L40.5145 18.4238L40.5131 18.4252Z" fill="url(#paint6_linear_16044_59557)"/>
<path d="M40.4207 10.2322V13.5134L35.9297 15.5042V10.2322C35.9297 9.67565 36.1313 9.16753 36.466 8.77636C36.8774 8.29379 37.4903 7.9873 38.1745 7.9873C38.4582 7.9873 38.731 8.03973 38.9811 8.13651C38.9811 8.13651 38.9824 8.13651 38.9838 8.13786L39.1908 8.22926C39.1908 8.22926 39.1948 8.23061 39.1961 8.23195C39.4596 8.36638 39.6922 8.55188 39.883 8.77502C39.8951 8.78846 39.9072 8.80325 39.918 8.81803C40.2312 9.20383 40.4194 9.69581 40.4194 10.2322H40.4207Z" fill="url(#paint7_linear_16044_59557)"/>
<path d="M4.4897 24.52V29.7732C4.4897 30.3297 4.28807 30.8379 3.95336 31.229C3.54202 31.7116 2.92906 32.0181 2.24485 32.0181C1.96122 32.0181 1.68834 31.9657 1.43832 31.8689L1.22862 31.7761C1.22862 31.7761 1.22459 31.7748 1.22324 31.7734C0.959774 31.639 0.727224 31.4535 0.536344 31.2304C0.528279 31.221 0.520214 31.2116 0.512148 31.2021C0.192224 30.815 0 30.3176 0 29.7746V26.5122L4.49104 24.5214L4.4897 24.52Z" fill="url(#paint8_linear_16044_59557)"/>
<path d="M31.508 22.4067V33.7668C31.508 34.6042 31.0496 35.3355 30.3681 35.7213C30.3453 35.7347 30.3211 35.7481 30.2969 35.7602L30.0482 35.8705C29.8035 35.9619 29.5387 36.013 29.2618 36.013C28.8599 36.013 28.4822 35.9068 28.1555 35.7213C27.4753 35.3355 27.0156 34.6042 27.0156 33.7668V24.3975L31.5067 22.4067H31.508Z" fill="url(#paint9_linear_16044_59557)"/>
</g>
<defs>
<linearGradient id="paint0_linear_16044_59557" x1="-1.01623" y1="14.9248" x2="39.8414" y2="12.3466" gradientUnits="userSpaceOnUse">
<stop offset="0.16" stop-color="#CCC244"/>
<stop offset="0.93" stop-color="#F9ED1C"/>
</linearGradient>
<linearGradient id="paint1_linear_16044_59557" x1="15.435" y1="31.1093" x2="25.1024" y2="31.3933" gradientUnits="userSpaceOnUse">
<stop stop-color="#5AFFFA"/>
<stop offset="1" stop-color="#00B1E1" stop-opacity="0.5"/>
</linearGradient>
<linearGradient id="paint2_linear_16044_59557" x1="-1.22902" y1="11.5171" x2="39.6286" y2="8.93892" gradientUnits="userSpaceOnUse">
<stop offset="0.16" stop-color="#CCC244"/>
<stop offset="0.93" stop-color="#F9ED1C"/>
</linearGradient>
<linearGradient id="paint3_linear_16044_59557" x1="-1.27487" y1="10.8693" x2="39.5814" y2="8.29104" gradientUnits="userSpaceOnUse">
<stop offset="0.16" stop-color="#CCC244"/>
<stop offset="0.93" stop-color="#F9ED1C"/>
</linearGradient>
<linearGradient id="paint4_linear_16044_59557" x1="4.41103" y1="29.1499" x2="16.9039" y2="28.1701" gradientUnits="userSpaceOnUse">
<stop stop-color="#5AFFFA"/>
<stop offset="1" stop-color="#00B1E1" stop-opacity="0.5"/>
</linearGradient>
<linearGradient id="paint5_linear_16044_59557" x1="-1.10052" y1="13.5765" x2="39.7557" y2="10.9983" gradientUnits="userSpaceOnUse">
<stop offset="0.16" stop-color="#CCC244"/>
<stop offset="0.93" stop-color="#F9ED1C"/>
</linearGradient>
<linearGradient id="paint6_linear_16044_59557" x1="36.0072" y1="25.2305" x2="48.3696" y2="24.9162" gradientUnits="userSpaceOnUse">
<stop stop-color="#5AFFFA"/>
<stop offset="1" stop-color="#00B1E1" stop-opacity="0.5"/>
</linearGradient>
<linearGradient id="paint7_linear_16044_59557" x1="-1.06329" y1="14.1479" x2="39.7943" y2="11.5697" gradientUnits="userSpaceOnUse">
<stop offset="0.16" stop-color="#CCC244"/>
<stop offset="0.93" stop-color="#F9ED1C"/>
</linearGradient>
<linearGradient id="paint8_linear_16044_59557" x1="-4.04181" y1="29.3953" x2="5.21408" y2="27.473" gradientUnits="userSpaceOnUse">
<stop stop-color="#5AFFFA"/>
<stop offset="1" stop-color="#00B1E1" stop-opacity="0.5"/>
</linearGradient>
<linearGradient id="paint9_linear_16044_59557" x1="24.3699" y1="29.1498" x2="39.1804" y2="28.7753" gradientUnits="userSpaceOnUse">
<stop stop-color="#5AFFFA"/>
<stop offset="1" stop-color="#00B1E1" stop-opacity="0.5"/>
</linearGradient>
<clipPath id="clip0_16044_59557">
<rect width="40.418" height="40" fill="white"/>
</clipPath>
</defs>
</svg>
