<svg width="123" height="40" viewBox="0 0 123 40" fill="none" xmlns="http://www.w3.org/2000/svg">
<path d="M77.0119 31.0705C76.8168 31.0705 75.375 31.0705 75.375 29.4308V19.8058C75.375 19.6087 75.4726 19.5102 75.6677 19.5102L78.7117 18.166C78.9068 18.166 79.0044 18.2645 79.0044 18.4615V29.4308C79.0044 31.0705 77.5626 31.0705 77.3675 31.0705H77.0119Z" fill="url(#paint0_linear_21735_90755)"/>
<path d="M88.6128 31.0705C88.4292 31.0705 86.9932 31.0705 86.9932 29.4308V21.3183H85.2096C83.5703 21.3183 83.5703 19.8821 83.5703 19.6982V19.8058C83.5703 19.6087 83.5703 18.166 85.2096 18.166H92.4356C94.0552 18.166 94.0552 19.6087 94.0552 19.8058V19.6982C94.0552 19.8821 94.0552 21.3183 92.4356 21.3183H90.6521V29.4308C90.6521 31.0705 89.2095 31.0705 89.0128 31.0705H88.6128Z" fill="url(#paint1_linear_21735_90755)"/>
<path d="M65.5237 31.6082C64.2935 31.6082 63.2881 31.4631 62.5075 31.1727C61.727 30.8691 61.1714 30.4138 60.8407 29.8067C60.51 29.1864 60.3909 28.3945 60.4835 27.431C60.51 27.2331 60.6158 27.1341 60.801 27.1341H63.8172C64.0156 27.1341 64.1082 27.2199 64.095 27.3915C64.0686 27.7214 64.181 27.992 64.4324 28.2031C64.6837 28.4011 65.074 28.5001 65.6031 28.5001C66.1455 28.5001 66.5291 28.4473 66.754 28.3417C66.9922 28.2229 67.1112 28.0382 67.1112 27.7874C67.1112 27.6818 67.0781 27.5828 67.012 27.4904C66.9591 27.3981 66.8599 27.3057 66.7144 27.2133C66.5688 27.1209 66.3638 27.0219 66.0992 26.9163L63.2814 25.6691C62.5803 25.3524 62.0313 25.0158 61.6344 24.6595C61.2508 24.3031 60.9796 23.9006 60.8208 23.4518C60.6753 22.9899 60.6026 22.4554 60.6026 21.8483C60.6158 20.6868 61.0193 19.7828 61.813 19.1361C62.6068 18.4894 63.8106 18.166 65.4245 18.166C66.6416 18.166 67.6404 18.3178 68.4209 18.6213C69.2146 18.9117 69.7835 19.3538 70.1274 19.9478C70.4846 20.5417 70.6169 21.3006 70.5243 22.2244C70.5111 22.4356 70.4118 22.5412 70.2266 22.5412H67.1906C67.098 22.5412 67.0252 22.5148 66.9723 22.462C66.9194 22.396 66.8996 22.3168 66.9128 22.2244C66.9392 21.9473 66.8268 21.7097 66.5754 21.5117C66.3373 21.3006 65.9868 21.195 65.5237 21.195C65.1136 21.195 64.8028 21.261 64.5911 21.3929C64.3927 21.5249 64.2935 21.7163 64.2935 21.9671C64.2935 22.0726 64.3265 22.1782 64.3927 22.2838C64.4588 22.3762 64.5646 22.4686 64.7102 22.561C64.8557 22.6534 65.0541 22.7523 65.3055 22.8579L68.1034 24.0655C68.8045 24.3691 69.3535 24.6991 69.7504 25.0554C70.1473 25.4117 70.4251 25.8209 70.5838 26.2828C70.7426 26.7448 70.8153 27.2793 70.8021 27.8864C70.7889 29.127 70.3655 30.0575 69.5321 30.6778C68.7119 31.2981 67.3758 31.6082 65.5237 31.6082Z" fill="url(#paint2_linear_21735_90755)"/>
<path d="M98.9193 31.0705C98.7231 31.0705 98.625 30.972 98.625 30.775V30.578C98.625 30.4204 98.6577 30.2956 98.7231 30.2037L102.921 23.0914C103.105 22.7893 103.281 22.5004 103.451 22.2245C103.621 21.9356 103.804 21.6466 104 21.3577V21.2986C103.66 21.3117 103.314 21.3183 102.961 21.3183C102.621 21.3183 102.274 21.3183 101.921 21.3183H100.793C99.1547 21.2986 99.1547 19.8821 99.1547 19.6982V19.8058C99.1547 19.6087 99.1547 18.166 100.793 18.166H109.219C109.415 18.166 109.513 18.2645 109.513 18.4615V18.6586C109.513 18.7242 109.5 18.7899 109.474 18.8556C109.461 18.9081 109.441 18.9672 109.415 19.0329L105.256 25.9087C105.06 26.2371 104.857 26.572 104.648 26.9135C104.439 27.2419 104.223 27.5702 104 27.8986V27.9577C104.34 27.9314 104.681 27.9183 105.021 27.9183C105.374 27.9183 105.74 27.9183 106.119 27.9183H107.404C109.042 27.9183 109.042 29.3545 109.042 29.5383V29.4308C109.042 29.6278 109.042 31.1378 107.404 31.0705H98.9193Z" fill="url(#paint3_linear_21735_90755)"/>
<path d="M117.955 22.1998C117.757 22.1998 116.986 22.1998 116.986 21.232V19.4994H115.054C114.086 19.4994 114.086 18.7287 114.086 18.5316V17.8026C114.086 17.6055 114.086 16.7004 115.054 16.7004H116.986V14.9678C116.986 14 117.757 14 117.955 14H118.82C119.018 14 119.788 14 119.788 14.9678V16.7004H121.721C122.689 16.7004 122.689 17.4711 122.689 17.6682V18.5316C122.689 18.7287 122.689 19.4994 121.721 19.4994H119.788V21.232C119.788 22.1998 119.018 22.1998 118.82 22.1998H117.955Z" fill="url(#paint4_linear_21735_90755)"/>
<path d="M54.5586 18.353C55.5113 18.353 56.2836 19.1254 56.2836 20.0781V29.1806C56.2836 30.4181 55.2805 31.4212 54.043 31.4212C53.2881 31.4212 52.584 31.0411 52.1698 30.41L48.4424 24.7305V29.6961C48.4424 30.6489 47.67 31.4212 46.7173 31.4212C45.7645 31.4212 44.9922 30.6489 44.9922 29.6961V20.4149C44.9922 19.1729 45.999 18.166 47.2411 18.166C47.9917 18.166 48.6929 18.5406 49.1103 19.1645L52.8335 24.7305V20.0781C52.8335 19.1254 53.6058 18.353 54.5586 18.353Z" fill="url(#paint5_linear_21735_90755)"/>
<g clip-path="url(#clip0_21735_90755)">
<path d="M4.49104 10.2322V19.6081L0 21.5975V10.2308C0 9.6743 0.201633 9.16619 0.536344 8.77502C0.72588 8.55188 0.959774 8.36638 1.22324 8.23195C1.22593 8.23195 1.22727 8.23061 1.22862 8.22927L1.43563 8.13786C1.43563 8.13786 1.43697 8.13786 1.43832 8.13651C1.68834 8.03973 1.96122 7.9873 2.24485 7.9873C2.92906 7.9873 3.54202 8.29379 3.95336 8.77636C4.28807 9.16753 4.4897 9.67699 4.4897 10.2322H4.49104Z" fill="url(#paint6_linear_21735_90755)"/>
<path d="M22.5053 23.6741V37.7589C22.5053 38.6676 21.9649 39.4499 21.1893 39.8034C21.1719 39.8115 21.153 39.8196 21.1342 39.8276C20.8654 39.9419 20.5696 40.0037 20.2605 40.0037C19.9513 40.0037 19.6556 39.9405 19.3867 39.8276C19.3679 39.8196 19.3491 39.8115 19.3316 39.8034C18.5547 39.4499 18.0156 38.6676 18.0156 37.7589V22.0449L18.5896 22.2533L19.7846 22.6875L22.5067 23.6741H22.5053Z" fill="url(#paint7_linear_21735_90755)"/>
<path d="M13.4754 6.23838V15.6264L13.4674 15.6305L8.98438 17.6172V6.23838C8.98438 5.40093 9.44275 4.66968 10.1243 4.28388C10.1471 4.27044 10.1713 4.257 10.1955 4.2449L10.4442 4.13467C10.4442 4.13467 10.4482 4.13333 10.4496 4.13199C10.6929 4.04192 10.955 3.99219 11.2292 3.99219C11.6311 3.99219 12.0089 4.09838 12.3355 4.28388C13.0157 4.66968 13.4754 5.40093 13.4754 6.23838Z" fill="url(#paint8_linear_21735_90755)"/>
<path d="M22.4506 2.24473V18.8902L19.5552 17.8404L19.324 17.757L17.9609 17.2624V2.24473C17.9609 1.38174 18.4475 0.633008 19.1613 0.256626C19.1613 0.256626 19.164 0.255281 19.1654 0.255281L19.4396 0.132957C19.4396 0.132957 19.4396 0.132957 19.4409 0.132957C19.6802 0.0469271 19.9369 -0.00146484 20.2071 -0.00146484C20.4773 -0.00146484 20.7341 0.0455829 20.9733 0.132957H20.9747L21.2489 0.255281C21.2489 0.255281 21.2516 0.255281 21.2529 0.256626C21.9667 0.633008 22.4533 1.38174 22.4533 2.24473H22.4506Z" fill="url(#paint9_linear_21735_90755)"/>
<path d="M13.5002 20.5396V33.7667C13.5002 34.6041 13.0418 35.3354 12.3603 35.7212C12.0337 35.9067 11.6559 36.0129 11.254 36.0129C10.9784 36.0129 10.715 35.9631 10.4703 35.8717C10.4703 35.8717 10.4703 35.8717 10.4676 35.8717L10.219 35.7615C10.1948 35.7494 10.1719 35.736 10.1477 35.7225C9.46754 35.3367 9.00781 34.6055 9.00781 33.768V22.5303L9.64229 22.2494L13.4975 20.5409L13.5002 20.5396Z" fill="url(#paint10_linear_21735_90755)"/>
<path d="M31.4364 6.23838V17.4935L30.8436 17.757L26.9453 19.4843V6.23838C26.9453 5.40093 27.4037 4.66968 28.0852 4.28388C28.4119 4.09838 28.7896 3.99219 29.1915 3.99219C29.4671 3.99219 29.7332 4.04192 29.9779 4.13467L30.2266 4.2449C30.2508 4.257 30.2749 4.27044 30.2978 4.28388C30.978 4.66968 31.4377 5.40093 31.4377 6.23838H31.4364Z" fill="url(#paint11_linear_21735_90755)"/>
<path d="M40.5131 18.0013V29.3493C40.5131 29.4864 40.501 29.6195 40.4782 29.7485C40.4069 30.1477 40.2295 30.5093 39.9768 30.8051C39.7873 31.0282 39.5534 31.2137 39.2899 31.3481C39.2872 31.3481 39.2859 31.3495 39.2845 31.3508L39.0775 31.4422C39.0775 31.4422 39.0762 31.4422 39.0748 31.4436C38.8248 31.5403 38.5519 31.5928 38.2683 31.5928C37.5841 31.5928 36.9711 31.2863 36.5598 30.8037C36.2251 30.4125 36.0234 29.9031 36.0234 29.3479V19.9908L40.5145 18L40.5131 18.0013Z" fill="url(#paint12_linear_21735_90755)"/>
<path d="M40.4207 10.2322V13.5134L35.9297 15.5042V10.2322C35.9297 9.67565 36.1313 9.16753 36.466 8.77636C36.8774 8.29379 37.4903 7.9873 38.1745 7.9873C38.4582 7.9873 38.731 8.03973 38.9811 8.13651C38.9811 8.13651 38.9824 8.13651 38.9838 8.13786L39.1908 8.22926C39.1908 8.22926 39.1948 8.23061 39.1961 8.23195C39.4596 8.36638 39.6922 8.55188 39.883 8.77502C39.8951 8.78846 39.9072 8.80325 39.918 8.81803C40.2312 9.20383 40.4194 9.69581 40.4194 10.2322H40.4207Z" fill="url(#paint13_linear_21735_90755)"/>
<path d="M4.4897 24.52V29.7732C4.4897 30.3297 4.28807 30.8379 3.95336 31.229C3.54202 31.7116 2.92906 32.0181 2.24485 32.0181C1.96122 32.0181 1.68834 31.9657 1.43832 31.8689L1.22862 31.7761C1.22862 31.7761 1.22459 31.7748 1.22324 31.7734C0.959774 31.639 0.727224 31.4535 0.536344 31.2304C0.528279 31.221 0.520214 31.2116 0.512148 31.2021C0.192224 30.815 0 30.3176 0 29.7746V26.5122L4.49104 24.5214L4.4897 24.52Z" fill="url(#paint14_linear_21735_90755)"/>
<path d="M31.508 22.4067V33.7668C31.508 34.6042 31.0496 35.3355 30.3681 35.7213C30.3453 35.7347 30.3211 35.7481 30.2969 35.7602L30.0482 35.8705C29.8035 35.9619 29.5387 36.0129 29.2618 36.0129C28.8599 36.0129 28.4822 35.9068 28.1555 35.7213C27.4753 35.3355 27.0156 34.6042 27.0156 33.7668V24.3975L31.5067 22.4067H31.508Z" fill="url(#paint15_linear_21735_90755)"/>
</g>
<defs>
<linearGradient id="paint0_linear_21735_90755" x1="75.3619" y1="24.628" x2="85.3542" y2="24.4118" gradientUnits="userSpaceOnUse">
<stop stop-color="#5AFFFA"/>
<stop offset="1" stop-color="#00B1E1" stop-opacity="0.5"/>
</linearGradient>
<linearGradient id="paint1_linear_21735_90755" x1="83.5323" y1="24.628" x2="112.3" y2="22.8296" gradientUnits="userSpaceOnUse">
<stop stop-color="#5AFFFA"/>
<stop offset="1" stop-color="#00B1E1" stop-opacity="0.5"/>
</linearGradient>
<linearGradient id="paint2_linear_21735_90755" x1="60.4156" y1="24.8973" x2="88.8259" y2="23.2141" gradientUnits="userSpaceOnUse">
<stop stop-color="#5AFFFA"/>
<stop offset="1" stop-color="#00B1E1" stop-opacity="0.5"/>
</linearGradient>
<linearGradient id="paint3_linear_21735_90755" x1="98.5856" y1="24.6291" x2="128.451" y2="22.6906" gradientUnits="userSpaceOnUse">
<stop stop-color="#5AFFFA"/>
<stop offset="1" stop-color="#00B1E1" stop-opacity="0.5"/>
</linearGradient>
<linearGradient id="paint4_linear_21735_90755" x1="43.2224" y1="20.7202" x2="120.847" y2="12.1184" gradientUnits="userSpaceOnUse">
<stop offset="0.16" stop-color="#CCC244"/>
<stop offset="0.93" stop-color="#F9ED1C"/>
</linearGradient>
<linearGradient id="paint5_linear_21735_90755" x1="44.9513" y1="24.8036" x2="75.92" y2="22.7738" gradientUnits="userSpaceOnUse">
<stop stop-color="#5AFFFA"/>
<stop offset="1" stop-color="#00B1E1" stop-opacity="0.5"/>
</linearGradient>
<linearGradient id="paint6_linear_21735_90755" x1="-1.01623" y1="14.9248" x2="39.8414" y2="12.3466" gradientUnits="userSpaceOnUse">
<stop offset="0.16" stop-color="#CCC244"/>
<stop offset="0.93" stop-color="#F9ED1C"/>
</linearGradient>
<linearGradient id="paint7_linear_21735_90755" x1="15.435" y1="31.1093" x2="25.1024" y2="31.3933" gradientUnits="userSpaceOnUse">
<stop stop-color="#5AFFFA"/>
<stop offset="1" stop-color="#00B1E1" stop-opacity="0.5"/>
</linearGradient>
<linearGradient id="paint8_linear_21735_90755" x1="-1.22902" y1="11.5171" x2="39.6286" y2="8.93892" gradientUnits="userSpaceOnUse">
<stop offset="0.16" stop-color="#CCC244"/>
<stop offset="0.93" stop-color="#F9ED1C"/>
</linearGradient>
<linearGradient id="paint9_linear_21735_90755" x1="-1.27487" y1="10.8693" x2="39.5814" y2="8.29104" gradientUnits="userSpaceOnUse">
<stop offset="0.16" stop-color="#CCC244"/>
<stop offset="0.93" stop-color="#F9ED1C"/>
</linearGradient>
<linearGradient id="paint10_linear_21735_90755" x1="4.41103" y1="29.1499" x2="16.9039" y2="28.1701" gradientUnits="userSpaceOnUse">
<stop stop-color="#5AFFFA"/>
<stop offset="1" stop-color="#00B1E1" stop-opacity="0.5"/>
</linearGradient>
<linearGradient id="paint11_linear_21735_90755" x1="-1.10052" y1="13.5765" x2="39.7557" y2="10.9983" gradientUnits="userSpaceOnUse">
<stop offset="0.16" stop-color="#CCC244"/>
<stop offset="0.93" stop-color="#F9ED1C"/>
</linearGradient>
<linearGradient id="paint12_linear_21735_90755" x1="36.0072" y1="24.8067" x2="48.3696" y2="24.4924" gradientUnits="userSpaceOnUse">
<stop stop-color="#5AFFFA"/>
<stop offset="1" stop-color="#00B1E1" stop-opacity="0.5"/>
</linearGradient>
<linearGradient id="paint13_linear_21735_90755" x1="-1.06329" y1="14.1479" x2="39.7943" y2="11.5697" gradientUnits="userSpaceOnUse">
<stop offset="0.16" stop-color="#CCC244"/>
<stop offset="0.93" stop-color="#F9ED1C"/>
</linearGradient>
<linearGradient id="paint14_linear_21735_90755" x1="-4.04181" y1="29.3953" x2="5.21408" y2="27.473" gradientUnits="userSpaceOnUse">
<stop stop-color="#5AFFFA"/>
<stop offset="1" stop-color="#00B1E1" stop-opacity="0.5"/>
</linearGradient>
<linearGradient id="paint15_linear_21735_90755" x1="24.3699" y1="29.1498" x2="39.1804" y2="28.7753" gradientUnits="userSpaceOnUse">
<stop stop-color="#5AFFFA"/>
<stop offset="1" stop-color="#00B1E1" stop-opacity="0.5"/>
</linearGradient>
<clipPath id="clip0_21735_90755">
<rect width="40.418" height="40" fill="white"/>
</clipPath>
</defs>
</svg>
