<svg width="128" height="40" viewBox="0 0 128 40" fill="none" xmlns="http://www.w3.org/2000/svg">
<path d="M82.008 31.0705C81.8129 31.0705 80.3711 31.0705 80.3711 29.4308V19.8058C80.3711 19.6087 80.4687 19.5102 80.6638 19.5102L83.7078 18.166C83.9029 18.166 84.0005 18.2645 84.0005 18.4615V29.4308C84.0005 31.0705 82.5587 31.0705 82.3636 31.0705H82.008Z" fill="url(#paint0_linear_11284_53505)"/>
<path d="M93.6128 31.0705C93.4292 31.0705 91.9932 31.0705 91.9932 29.4308V21.3183H90.2096C88.5703 21.3183 88.5703 19.8821 88.5703 19.6982V19.8058C88.5703 19.6087 88.5703 18.166 90.2096 18.166H97.4356C99.0552 18.166 99.0552 19.6087 99.0552 19.8058V19.6982C99.0552 19.8821 99.0552 21.3183 97.4356 21.3183H95.6521V29.4308C95.6521 31.0705 94.2095 31.0705 94.0128 31.0705H93.6128Z" fill="url(#paint1_linear_11284_53505)"/>
<path d="M70.5198 31.6082C69.2895 31.6082 68.2841 31.4631 67.5036 31.1727C66.7231 30.8691 66.1675 30.4138 65.8368 29.8067C65.5061 29.1864 65.387 28.3945 65.4796 27.431C65.5061 27.2331 65.6119 27.1341 65.7971 27.1341H68.8133C69.0117 27.1341 69.1043 27.2199 69.0911 27.3915C69.0647 27.7214 69.1771 27.992 69.4284 28.2031C69.6798 28.4011 70.0701 28.5001 70.5992 28.5001C71.1416 28.5001 71.5252 28.4473 71.7501 28.3417C71.9883 28.2229 72.1073 28.0382 72.1073 27.7874C72.1073 27.6818 72.0742 27.5828 72.0081 27.4904C71.9552 27.3981 71.856 27.3057 71.7104 27.2133C71.5649 27.1209 71.3599 27.0219 71.0953 26.9163L68.2775 25.6691C67.5764 25.3524 67.0274 25.0158 66.6305 24.6595C66.2469 24.3031 65.9757 23.9006 65.8169 23.4518C65.6714 22.9899 65.5987 22.4554 65.5987 21.8483C65.6119 20.6868 66.0154 19.7828 66.8091 19.1361C67.6029 18.4894 68.8067 18.166 70.4206 18.166C71.6377 18.166 72.6365 18.3178 73.417 18.6213C74.2107 18.9117 74.7796 19.3538 75.1235 19.9478C75.4807 20.5417 75.613 21.3006 75.5204 22.2244C75.5072 22.4356 75.4079 22.5412 75.2227 22.5412H72.1867C72.0941 22.5412 72.0213 22.5148 71.9684 22.462C71.9155 22.396 71.8957 22.3168 71.9089 22.2244C71.9353 21.9473 71.8229 21.7097 71.5715 21.5117C71.3334 21.3006 70.9829 21.195 70.5198 21.195C70.1097 21.195 69.7989 21.261 69.5872 21.3929C69.3888 21.5249 69.2895 21.7163 69.2895 21.9671C69.2895 22.0726 69.3226 22.1782 69.3888 22.2838C69.4549 22.3762 69.5607 22.4686 69.7063 22.561C69.8518 22.6534 70.0502 22.7523 70.3016 22.8579L73.0995 24.0655C73.8006 24.3691 74.3496 24.6991 74.7465 25.0554C75.1434 25.4117 75.4212 25.8209 75.5799 26.2828C75.7387 26.7448 75.8114 27.2793 75.7982 27.8864C75.785 29.127 75.3616 30.0575 74.5282 30.6778C73.708 31.2981 72.3719 31.6082 70.5198 31.6082Z" fill="url(#paint2_linear_11284_53505)"/>
<path d="M103.923 31.0705C103.727 31.0705 103.629 30.972 103.629 30.775V30.578C103.629 30.4204 103.662 30.2956 103.727 30.2037L107.925 23.0914C108.108 22.7893 108.285 22.5004 108.455 22.2245C108.625 21.9356 108.808 21.6466 109.004 21.3577V21.2986C108.664 21.3117 108.318 21.3183 107.965 21.3183C107.625 21.3183 107.278 21.3183 106.925 21.3183H105.797C104.159 21.2986 104.159 19.8821 104.159 19.6982V19.8058C104.159 19.6087 104.159 18.166 105.797 18.166H114.223C114.419 18.166 114.517 18.2645 114.517 18.4615V18.6586C114.517 18.7242 114.504 18.7899 114.478 18.8556C114.465 18.9081 114.445 18.9672 114.419 19.0329L110.26 25.9087C110.064 26.2371 109.861 26.572 109.652 26.9135C109.442 27.2419 109.227 27.5702 109.004 27.8986V27.9577C109.344 27.9314 109.684 27.9183 110.024 27.9183C110.378 27.9183 110.744 27.9183 111.123 27.9183H112.408C114.046 27.9183 114.046 29.3545 114.046 29.5383V29.4308C114.046 29.6278 114.046 31.1378 112.408 31.0705H103.923Z" fill="url(#paint3_linear_11284_53505)"/>
<path d="M122.955 22.1998C122.757 22.1998 121.986 22.1998 121.986 21.232V19.4994H120.054C119.086 19.4994 119.086 18.7287 119.086 18.5316V17.8026C119.086 17.6055 119.086 16.7004 120.054 16.7004H121.986V14.9678C121.986 14 122.757 14 122.955 14H123.82C124.018 14 124.788 14 124.788 14.9678V16.7004H126.721C127.689 16.7004 127.689 17.4711 127.689 17.6682V18.5316C127.689 18.7287 127.689 19.4994 126.721 19.4994H124.788V21.232C124.788 22.1998 124.018 22.1998 123.82 22.1998H122.955Z" fill="url(#paint4_linear_11284_53505)"/>
<path d="M59.5586 18.353C60.5113 18.353 61.2836 19.1254 61.2836 20.0781V29.1806C61.2836 30.4181 60.2805 31.4212 59.043 31.4212C58.2881 31.4212 57.584 31.0411 57.1698 30.41L53.4424 24.7305V29.6961C53.4424 30.6489 52.67 31.4212 51.7173 31.4212C50.7645 31.4212 49.9922 30.6489 49.9922 29.6961V20.4149C49.9922 19.1729 50.999 18.166 52.2411 18.166C52.9917 18.166 53.6929 18.5406 54.1103 19.1645L57.8335 24.7305V20.0781C57.8335 19.1254 58.6058 18.353 59.5586 18.353Z" fill="url(#paint5_linear_11284_53505)"/>
<g clip-path="url(#clip0_11284_53505)">
<path d="M4.49104 10.2331V19.6091L0 21.5985V10.2318C0 9.67528 0.201633 9.16716 0.536344 8.776C0.72588 8.55285 0.959774 8.36735 1.22324 8.23293C1.22593 8.23293 1.22727 8.23159 1.22862 8.23024L1.43563 8.13883C1.43563 8.13883 1.43697 8.13883 1.43832 8.13749C1.68834 8.04071 1.96122 7.98828 2.24485 7.98828C2.92906 7.98828 3.54202 8.29476 3.95336 8.77734C4.28807 9.16851 4.4897 9.67797 4.4897 10.2331H4.49104Z" fill="url(#paint6_linear_11284_53505)"/>
<path d="M22.5014 23.6741V37.7589C22.5014 38.6676 21.961 39.4499 21.1854 39.8034C21.168 39.8115 21.1491 39.8196 21.1303 39.8276C20.8615 39.9419 20.5657 40.0037 20.2566 40.0037C19.9474 40.0037 19.6517 39.9405 19.3828 39.8276C19.364 39.8196 19.3452 39.8115 19.3277 39.8034C18.5508 39.4499 18.0117 38.6676 18.0117 37.7589V22.0449L18.5857 22.2533L19.7807 22.6875L22.5028 23.6741H22.5014Z" fill="url(#paint7_linear_11284_53505)"/>
<path d="M13.4715 6.23838V15.6264L13.4634 15.6305L8.98047 17.6172V6.23838C8.98047 5.40093 9.43885 4.66968 10.1204 4.28388C10.1432 4.27044 10.1674 4.257 10.1916 4.2449L10.4403 4.13467C10.4403 4.13467 10.4443 4.13333 10.4457 4.13199C10.689 4.04192 10.9511 3.99219 11.2253 3.99219C11.6272 3.99219 12.005 4.09838 12.3316 4.28388C13.0118 4.66968 13.4715 5.40093 13.4715 6.23838Z" fill="url(#paint8_linear_11284_53505)"/>
<path d="M22.4545 2.24424V18.8897L19.5591 17.8399L19.3279 17.7566L17.9648 17.2619V2.24424C17.9648 1.38125 18.4515 0.632519 19.1652 0.256137C19.1652 0.256137 19.1679 0.254793 19.1693 0.254793L19.4435 0.132469C19.4435 0.132469 19.4435 0.132469 19.4448 0.132469C19.6841 0.0464389 19.9409 -0.00195312 20.211 -0.00195312C20.4812 -0.00195312 20.738 0.0450946 20.9772 0.132469H20.9786L21.2528 0.254793C21.2528 0.254793 21.2555 0.254793 21.2568 0.256137C21.9706 0.632519 22.4572 1.38125 22.4572 2.24424H22.4545Z" fill="url(#paint9_linear_11284_53505)"/>
<path d="M13.5002 20.5391V33.7662C13.5002 34.6037 13.0418 35.3349 12.3603 35.7207C12.0337 35.9062 11.6559 36.0124 11.254 36.0124C10.9784 36.0124 10.715 35.9627 10.4703 35.8713C10.4703 35.8713 10.4703 35.8713 10.4676 35.8713L10.219 35.761C10.1948 35.7489 10.1719 35.7355 10.1477 35.722C9.46754 35.3363 9.00781 34.605 9.00781 33.7675V22.5299L9.64229 22.2489L13.4975 20.5404L13.5002 20.5391Z" fill="url(#paint10_linear_11284_53505)"/>
<path d="M31.4364 6.23838V17.4935L30.8436 17.757L26.9453 19.4843V6.23838C26.9453 5.40093 27.4037 4.66968 28.0852 4.28388C28.4119 4.09838 28.7896 3.99219 29.1915 3.99219C29.4671 3.99219 29.7332 4.04192 29.9779 4.13467L30.2266 4.2449C30.2508 4.257 30.2749 4.27044 30.2978 4.28388C30.978 4.66968 31.4377 5.40093 31.4377 6.23838H31.4364Z" fill="url(#paint11_linear_11284_53505)"/>
<path d="M40.5131 18.0013V29.3493C40.5131 29.4864 40.501 29.6195 40.4782 29.7485C40.4069 30.1477 40.2295 30.5093 39.9768 30.8051C39.7873 31.0282 39.5534 31.2137 39.2899 31.3481C39.2872 31.3481 39.2859 31.3495 39.2845 31.3508L39.0775 31.4422C39.0775 31.4422 39.0762 31.4422 39.0748 31.4436C38.8248 31.5403 38.5519 31.5928 38.2683 31.5928C37.5841 31.5928 36.9711 31.2863 36.5598 30.8037C36.2251 30.4125 36.0234 29.9031 36.0234 29.3479V19.9908L40.5145 18L40.5131 18.0013Z" fill="url(#paint12_linear_11284_53505)"/>
<path d="M40.4168 10.2331V13.5144L35.9258 15.5052V10.2331C35.9258 9.67662 36.1274 9.16851 36.4621 8.77734C36.8735 8.29476 37.4864 7.98828 38.1706 7.98828C38.4543 7.98828 38.7271 8.04071 38.9772 8.13749C38.9772 8.13749 38.9785 8.13749 38.9799 8.13883L39.1869 8.23024C39.1869 8.23024 39.1909 8.23159 39.1922 8.23293C39.4557 8.36735 39.6883 8.55285 39.8791 8.776C39.8912 8.78944 39.9033 8.80422 39.9141 8.81901C40.2273 9.2048 40.4155 9.69679 40.4155 10.2331H40.4168Z" fill="url(#paint13_linear_11284_53505)"/>
<path d="M4.4897 24.5195V29.7727C4.4897 30.3293 4.28807 30.8374 3.95336 31.2285C3.54202 31.7111 2.92906 32.0176 2.24485 32.0176C1.96122 32.0176 1.68834 31.9652 1.43832 31.8684L1.22862 31.7756C1.22862 31.7756 1.22459 31.7743 1.22324 31.7729C0.959774 31.6385 0.727224 31.453 0.536344 31.2299C0.528279 31.2205 0.520214 31.2111 0.512148 31.2017C0.192224 30.8145 0 30.3172 0 29.7741V26.5117L4.49104 24.5209L4.4897 24.5195Z" fill="url(#paint14_linear_11284_53505)"/>
<path d="M31.5119 22.4062V33.7663C31.5119 34.6037 31.0535 35.335 30.372 35.7208C30.3492 35.7342 30.325 35.7477 30.3008 35.7597L30.0521 35.87C29.8074 35.9614 29.5426 36.0125 29.2657 36.0125C28.8638 36.0125 28.4861 35.9063 28.1594 35.7208C27.4793 35.335 27.0195 34.6037 27.0195 33.7663V24.397L31.5106 22.4062H31.5119Z" fill="url(#paint15_linear_11284_53505)"/>
</g>
<defs>
<linearGradient id="paint0_linear_11284_53505" x1="80.3579" y1="24.628" x2="90.3503" y2="24.4118" gradientUnits="userSpaceOnUse">
<stop stop-color="#5AFFFA"/>
<stop offset="1" stop-color="#00B1E1" stop-opacity="0.5"/>
</linearGradient>
<linearGradient id="paint1_linear_11284_53505" x1="88.5323" y1="24.628" x2="117.3" y2="22.8296" gradientUnits="userSpaceOnUse">
<stop stop-color="#5AFFFA"/>
<stop offset="1" stop-color="#00B1E1" stop-opacity="0.5"/>
</linearGradient>
<linearGradient id="paint2_linear_11284_53505" x1="65.4117" y1="24.8973" x2="93.822" y2="23.2141" gradientUnits="userSpaceOnUse">
<stop stop-color="#5AFFFA"/>
<stop offset="1" stop-color="#00B1E1" stop-opacity="0.5"/>
</linearGradient>
<linearGradient id="paint3_linear_11284_53505" x1="103.589" y1="24.6291" x2="133.455" y2="22.6906" gradientUnits="userSpaceOnUse">
<stop stop-color="#5AFFFA"/>
<stop offset="1" stop-color="#00B1E1" stop-opacity="0.5"/>
</linearGradient>
<linearGradient id="paint4_linear_11284_53505" x1="48.2224" y1="20.7202" x2="125.847" y2="12.1184" gradientUnits="userSpaceOnUse">
<stop offset="0.16" stop-color="#CCC244"/>
<stop offset="0.93" stop-color="#F9ED1C"/>
</linearGradient>
<linearGradient id="paint5_linear_11284_53505" x1="49.9513" y1="24.8036" x2="80.92" y2="22.7738" gradientUnits="userSpaceOnUse">
<stop stop-color="#5AFFFA"/>
<stop offset="1" stop-color="#00B1E1" stop-opacity="0.5"/>
</linearGradient>
<linearGradient id="paint6_linear_11284_53505" x1="-1.01623" y1="14.9258" x2="39.8414" y2="12.3476" gradientUnits="userSpaceOnUse">
<stop offset="0.16" stop-color="#CCC244"/>
<stop offset="0.93" stop-color="#F9ED1C"/>
</linearGradient>
<linearGradient id="paint7_linear_11284_53505" x1="15.431" y1="31.1093" x2="25.0985" y2="31.3933" gradientUnits="userSpaceOnUse">
<stop stop-color="#5AFFFA"/>
<stop offset="1" stop-color="#00B1E1" stop-opacity="0.5"/>
</linearGradient>
<linearGradient id="paint8_linear_11284_53505" x1="-1.23293" y1="11.5171" x2="39.6247" y2="8.93892" gradientUnits="userSpaceOnUse">
<stop offset="0.16" stop-color="#CCC244"/>
<stop offset="0.93" stop-color="#F9ED1C"/>
</linearGradient>
<linearGradient id="paint9_linear_11284_53505" x1="-1.27096" y1="10.8688" x2="39.5853" y2="8.29055" gradientUnits="userSpaceOnUse">
<stop offset="0.16" stop-color="#CCC244"/>
<stop offset="0.93" stop-color="#F9ED1C"/>
</linearGradient>
<linearGradient id="paint10_linear_11284_53505" x1="4.41103" y1="29.1494" x2="16.9039" y2="28.1696" gradientUnits="userSpaceOnUse">
<stop stop-color="#5AFFFA"/>
<stop offset="1" stop-color="#00B1E1" stop-opacity="0.5"/>
</linearGradient>
<linearGradient id="paint11_linear_11284_53505" x1="-1.10052" y1="13.5765" x2="39.7557" y2="10.9983" gradientUnits="userSpaceOnUse">
<stop offset="0.16" stop-color="#CCC244"/>
<stop offset="0.93" stop-color="#F9ED1C"/>
</linearGradient>
<linearGradient id="paint12_linear_11284_53505" x1="36.0072" y1="24.8067" x2="48.3696" y2="24.4924" gradientUnits="userSpaceOnUse">
<stop stop-color="#5AFFFA"/>
<stop offset="1" stop-color="#00B1E1" stop-opacity="0.5"/>
</linearGradient>
<linearGradient id="paint13_linear_11284_53505" x1="-1.06719" y1="14.1488" x2="39.7904" y2="11.5706" gradientUnits="userSpaceOnUse">
<stop offset="0.16" stop-color="#CCC244"/>
<stop offset="0.93" stop-color="#F9ED1C"/>
</linearGradient>
<linearGradient id="paint14_linear_11284_53505" x1="-4.04181" y1="29.3948" x2="5.21408" y2="27.4725" gradientUnits="userSpaceOnUse">
<stop stop-color="#5AFFFA"/>
<stop offset="1" stop-color="#00B1E1" stop-opacity="0.5"/>
</linearGradient>
<linearGradient id="paint15_linear_11284_53505" x1="24.3738" y1="29.1493" x2="39.1843" y2="28.7748" gradientUnits="userSpaceOnUse">
<stop stop-color="#5AFFFA"/>
<stop offset="1" stop-color="#00B1E1" stop-opacity="0.5"/>
</linearGradient>
<clipPath id="clip0_11284_53505">
<rect width="40.418" height="40" fill="white"/>
</clipPath>
</defs>
</svg>
