<svg width="51" height="50" viewBox="0 0 51 50" fill="none" xmlns="http://www.w3.org/2000/svg">
<path d="M11.625 16.5796L21.3287 29.7322V38.5816H27.9684V29.7322L37.3973 16.5796H11.625Z" fill="#0097AC"/>
<path d="M38.5117 4.65203L40.7067 0L29.7109 2.65166L34.5744 12.9771L36.689 8.50054C39.8977 10.5587 42.4449 13.4986 44.025 16.9677C45.6052 20.4369 46.1514 24.2882 45.5982 28.0599C45.0449 31.8316 43.4157 35.3638 40.9057 38.233C38.3958 41.1022 35.1117 43.1867 31.447 44.2366L32.6777 48.2839C37.1578 46.9839 41.1633 44.4092 44.2064 40.8735C47.2495 37.3378 49.1989 32.9935 49.8171 28.3697C50.4354 23.7459 49.6959 19.042 47.6886 14.831C45.6814 10.62 42.493 7.08343 38.5117 4.65203Z" fill="#0097AC"/>
<path d="M13.3464 41.4934C10.1376 39.4354 7.59044 36.4957 6.01011 33.0267C4.42978 29.5576 3.88339 25.7065 4.43642 21.9348C4.98946 18.1631 6.61845 14.6308 9.12816 11.7615C11.6379 8.8922 14.9218 6.80751 18.5863 5.75732L17.3535 1.71216C12.8725 3.01202 8.86624 5.58697 5.8227 9.12334C2.77916 12.6597 0.829728 17.0049 0.211869 21.6295C-0.405989 26.2541 0.334393 30.9586 2.34283 35.17C4.35126 39.3813 7.54106 42.9176 11.5237 45.3483L9.32875 50.0003L20.335 47.3507L15.4716 37.0211L13.3464 41.4934Z" fill="#0097AC"/>
</svg>
